<?xml version="1.0" encoding="UTF-8" standalone="no"?>
<!-- Created with Inkscape (http://www.inkscape.org/) -->

<svg
   width="197.60709mm"
   height="51.157593mm"
   viewBox="0 0 197.60709 51.157593"
   version="1.1"
   id="svg824"
   inkscape:version="1.2.2 (b0a84865, 2022-12-01)"
   sodipodi:docname="movies.svg"
   inkscape:export-filename="movies.png"
   inkscape:export-xdpi="96"
   inkscape:export-ydpi="96"
   xmlns:inkscape="http://www.inkscape.org/namespaces/inkscape"
   xmlns:sodipodi="http://sodipodi.sourceforge.net/DTD/sodipodi-0.dtd"
   xmlns="http://www.w3.org/2000/svg"
   xmlns:svg="http://www.w3.org/2000/svg">
  <sodipodi:namedview
     id="namedview826"
     pagecolor="#ffffff"
     bordercolor="#666666"
     borderopacity="1.0"
     inkscape:showpageshadow="2"
     inkscape:pageopacity="0.0"
     inkscape:pagecheckerboard="0"
     inkscape:deskcolor="#d1d1d1"
     inkscape:document-units="mm"
     showgrid="false"
     inkscape:zoom="0.2102413"
     inkscape:cx="-71.34659"
     inkscape:cy="114.15454"
     inkscape:window-width="1312"
     inkscape:window-height="456"
     inkscape:window-x="0"
     inkscape:window-y="30"
     inkscape:window-maximized="0"
     inkscape:current-layer="layer1" />
  <defs
     id="defs821">
    <clipPath
       clipPathUnits="userSpaceOnUse"
       id="clipPath160">
      <path
         d="M 0,0 H 2479.1665 V 3481.4492 H 0 Z"
         clip-rule="evenodd"
         id="path158" />
    </clipPath>
    <clipPath
       clipPathUnits="userSpaceOnUse"
       id="clipPath230">
      <path
         d="m 1022.7231,1798.2661 h 409.6248 v 452.3023 h -409.6248 z"
         clip-rule="evenodd"
         id="path228" />
    </clipPath>
    <clipPath
       clipPathUnits="userSpaceOnUse"
       id="clipPath262">
      <path
         d="M 0,0 H 2479.1665 V 3481.4492 H 0 Z"
         clip-rule="evenodd"
         id="path260" />
    </clipPath>
    <clipPath
       clipPathUnits="userSpaceOnUse"
       id="clipPath312">
      <path
         d="m 1724.172,1835.7349 h 160.6371 v 45.4978 H 1724.172 Z"
         clip-rule="evenodd"
         id="path310" />
    </clipPath>
    <clipPath
       clipPathUnits="userSpaceOnUse"
       id="clipPath326">
      <path
         d="M 0,0 H 2479.1665 V 3481.4492 H 0 Z"
         clip-rule="evenodd"
         id="path324" />
    </clipPath>
    <clipPath
       clipPathUnits="userSpaceOnUse"
       id="clipPath364">
      <path
         d="m 1753.6221,2036.4607 h 655.9351 v 195.3731 h -655.9351 z"
         clip-rule="evenodd"
         id="path362" />
    </clipPath>
    <clipPath
       clipPathUnits="userSpaceOnUse"
       id="clipPath386">
      <path
         d="M 0,0 H 2479.1665 V 3481.4492 H 0 Z"
         clip-rule="evenodd"
         id="path384" />
    </clipPath>
  </defs>
  <g
     inkscape:label="Calque 1"
     inkscape:groupmode="layer"
     id="layer1"
     transform="translate(-5.6498474,-117.88731)">
    <g
       id="g154"
       transform="matrix(0.08466666,0,0,0.08466666,-5.2873093,-26.491623)">
      <g
         id="g156"
         clip-path="url(#clipPath160)">
        <g
           id="g162"
           transform="matrix(2.6772857,0,0,2.6763446,132.52563,1708.6085)">
          <path
             d="m 0,0 c 81,1 163,1 244,0 0,75 0,149 0,224 C 163,223 81,223 0,224 -1,149 -1,75 0,0 Z"
             style="fill:#ffffff;fill-opacity:1;fill-rule:nonzero;stroke:none"
             id="path164" />
          <path
             d="m 0,0 c 81,1 163,1 244,0 0,75 0,149 0,224 C 163,223 81,223 0,224 -1,149 -1,75 0,0 Z"
             style="fill:none;stroke:#000000;stroke-width:1;stroke-linecap:butt;stroke-linejoin:miter;stroke-miterlimit:10;stroke-dasharray:none;stroke-opacity:1"
             id="path166" />
        </g>
        <g
           id="g168"
           transform="matrix(1.5618026,0,0,1.5612537,157.95985,1964.1993)">
          <text
             xml:space="preserve"
             style="font-variant:normal;font-weight:normal;font-size:20.57px;font-family:'Comic Sans MS';-inkscape-font-specification:ComicSansMS;writing-mode:lr-tb;fill:#000000;fill-opacity:1;fill-rule:nonzero;stroke:none"
             id="text172"><tspan
               x="0 14.84494 25.370987 35.063385"
               y="0"
               sodipodi:role="line"
               id="tspan170">Date</tspan></text>
        </g>
        <g
           id="g174"
           transform="matrix(2.6772857,0,0,2.6763446,337.33801,2036.4607)">
          <path
             d="m 0,0 c 36,1 73,1 109,0 0,8 0,17 0,25 C 73,26 36,26 0,25 0,17 0,8 0,0 Z"
             style="fill:#ffffff;fill-opacity:1;fill-rule:nonzero;stroke:none"
             id="path176" />
          <path
             d="m 0,0 c 36,1 73,1 109,0 0,8 0,17 0,25 C 73,26 36,26 0,25 0,17 0,8 0,0 Z"
             style="fill:none;stroke:#000000;stroke-width:1;stroke-linecap:butt;stroke-linejoin:miter;stroke-miterlimit:10;stroke-dasharray:none;stroke-opacity:1"
             id="path178" />
          <path
             d="m 109,0 c 8,0 17,0 25,0 0,8 0,17 0,25 -8,0 -17,0 -25,0 0,-8 0,-17 0,-25 z"
             style="fill:#cccccc;fill-opacity:1;fill-rule:nonzero;stroke:none"
             id="path180" />
          <path
             d="m 109,0 c 8,0 17,0 25,0 0,8 0,17 0,25 -8,0 -17,0 -25,0 0,-8 0,-17 0,-25 z"
             style="fill:none;stroke:#000000;stroke-width:1;stroke-linecap:butt;stroke-linejoin:miter;stroke-miterlimit:10;stroke-dasharray:none;stroke-opacity:1"
             id="path182" />
          <path
             d="m 117.15,10 c 2.85,0 5.85,0 8.7,0 C 124,12 123,15 121.5,17.5 120,15 119,13 117.15,10 Z"
             style="fill:#000000;fill-opacity:1;fill-rule:nonzero;stroke:none"
             id="path184" />
        </g>
        <g
           id="g186"
           transform="matrix(1.5618026,0,0,1.5612537,350.72443,2081.9585)">
          <text
             xml:space="preserve"
             style="font-variant:normal;font-weight:normal;font-size:20.57px;font-family:'Comic Sans MS';-inkscape-font-specification:ComicSansMS;writing-mode:lr-tb;fill:#000000;fill-opacity:1;fill-rule:nonzero;stroke:none"
             id="text190"><tspan
               x="0 15.045822 25.812927 31.57814 47.558044 58.084091 67.776489 73.541702 84.359024"
               y="0"
               sodipodi:role="line"
               id="tspan188">Animation</tspan></text>
        </g>
        <g
           id="g192"
           transform="matrix(1.5618026,0,0,1.5612537,157.95985,2071.2532)">
          <text
             xml:space="preserve"
             style="font-variant:normal;font-weight:normal;font-size:20.57px;font-family:'Comic Sans MS';-inkscape-font-specification:ComicSansMS;writing-mode:lr-tb;fill:#000000;fill-opacity:1;fill-rule:nonzero;stroke:none"
             id="text196"><tspan
               x="0 13.981171 25.250473 36.017578 45.900818"
               y="0"
               sodipodi:role="line"
               id="tspan194">Genre</tspan></text>
        </g>
        <g
           id="g198"
           transform="matrix(1.5618026,0,0,1.5612537,406.94742,2239.863)">
          <text
             xml:space="preserve"
             style="font-variant:normal;font-weight:bold;font-size:41.14px;font-family:'Comic Sans MS';-inkscape-font-specification:ComicSansMS-Bold;writing-mode:lr-tb;fill:#000000;fill-opacity:1;fill-rule:nonzero;stroke:none"
             id="text202"><tspan
               x="0 17.838043 35.676086"
               y="0"
               sodipodi:role="line"
               id="tspan200">...</tspan></text>
        </g>
        <g
           id="g204"
           transform="matrix(1.5618026,0,0,1.5612537,423.01114,1771.5026)">
          <text
             xml:space="preserve"
             style="font-variant:normal;font-weight:bold;font-size:27.42px;font-family:'Comic Sans MS';-inkscape-font-specification:ComicSansMS-Bold;writing-mode:lr-tb;fill:#000000;fill-opacity:1;fill-rule:nonzero;stroke:none"
             id="text208"><tspan
               x="0 16.642105 24.327194 31.838226 53.139603"
               y="0"
               sodipodi:role="line"
               id="tspan206">Films</tspan></text>
        </g>
        <g
           id="g210"
           transform="matrix(2.6772857,0,0,2.6763446,946.42047,1708.6085)">
          <path
             d="m 0,0 c 70,-1 141,-1 211,0 0,75 0,149 0,224 C 141,222 70,222 0,224 0,149 0,75 0,0 Z"
             style="fill:#ffffff;fill-opacity:1;fill-rule:nonzero;stroke:none"
             id="path212" />
          <path
             d="m 0,0 c 70,-1 141,-1 211,0 0,75 0,149 0,224 C 141,222 70,222 0,224 0,149 0,75 0,0 Z"
             style="fill:none;stroke:#000000;stroke-width:1;stroke-linecap:butt;stroke-linejoin:miter;stroke-miterlimit:10;stroke-dasharray:none;stroke-opacity:1"
             id="path214" />
        </g>
        <g
           id="g216"
           transform="matrix(2.6772857,0,0,2.6763446,1020.0458,1795.5897)">
          <path
             d="M 0,0 H 155 V 170 H 0 Z"
             style="fill:#ffffff;fill-opacity:1;fill-rule:nonzero;stroke:none"
             id="path218" />
          <path
             d="m 0,0 c 52,0 103,0 155,0 2,57 2,113 0,170 -52,1 -103,1 -155,0 C 1,113 1,57 0,0 Z"
             style="fill:#ffffff;fill-opacity:1;fill-rule:nonzero;stroke:none"
             id="path220" />
          <path
             d="m 0,0 c 52,0 103,0 155,0 2,57 2,113 0,170 -52,1 -103,1 -155,0 C 1,113 1,57 0,0 Z"
             style="fill:none;stroke:#000000;stroke-width:1;stroke-linecap:butt;stroke-linejoin:miter;stroke-miterlimit:10;stroke-dasharray:none;stroke-opacity:1"
             id="path222" />
        </g>
      </g>
    </g>
    <g
       id="g224"
       transform="matrix(0.08466666,0,0,0.08466666,-5.2873093,-26.491623)">
      <g
         id="g226"
         clip-path="url(#clipPath230)">
        <g
           id="g232"
           transform="matrix(2.6772857,0,0,2.6763446,1020.0458,1795.5897)">
          <path
             d="M 1,21 H 154 V 41 H 1 Z"
             style="fill:#e5e5e5;fill-opacity:1;fill-rule:nonzero;stroke:none"
             id="path234" />
          <text
             xml:space="preserve"
             transform="translate(6,16)"
             style="font-variant:normal;font-weight:normal;font-size:12px;font-family:'Comic Sans MS';-inkscape-font-specification:ComicSansMS;writing-mode:lr-tb;fill:#000000;fill-opacity:1;fill-rule:nonzero;stroke:none"
             id="text238"><tspan
               x="0 8.6601562 14.425781 20.566406 26.935547 33.246094 39.527344"
               y="0"
               sodipodi:role="line"
               id="tspan236">Dragons</tspan></text>
          <text
             xml:space="preserve"
             transform="translate(6,36)"
             style="font-variant:normal;font-weight:normal;font-size:12px;font-family:'Comic Sans MS';-inkscape-font-specification:ComicSansMS;writing-mode:lr-tb;fill:#000000;fill-opacity:1;fill-rule:nonzero;stroke:none"
             id="text242"><tspan
               x="0 6.609375 13.183594 19.025391 22.611328 25.974609 32.255859 39.304688 45.878906 51.720703 57.375 63.140625 69.380859 75.544922 81.199219 84.5625 91.681641 94.96875 101.54297"
               y="0"
               sodipodi:role="line"
               id="tspan240">Les indestructibles</tspan></text>
          <text
             xml:space="preserve"
             transform="translate(6,56)"
             style="font-variant:normal;font-weight:normal;font-size:12px;font-family:'Comic Sans MS';-inkscape-font-specification:ComicSansMS;writing-mode:lr-tb;fill:#000000;fill-opacity:1;fill-rule:nonzero;stroke:none"
             id="text246"><tspan
               x="0 7.2304688 13.371094 19.136719"
               y="0"
               sodipodi:role="line"
               id="tspan244">Cars</tspan></text>
          <text
             xml:space="preserve"
             transform="translate(6,76)"
             style="font-variant:normal;font-weight:normal;font-size:12px;font-family:'Comic Sans MS';-inkscape-font-specification:ComicSansMS;writing-mode:lr-tb;fill:#000000;fill-opacity:1;fill-rule:nonzero;stroke:none"
             id="text250"><tspan
               x="0 10.59375 16.904297 20.267578 23.589844 27.175781 36.498047 42.808594 48.972656 55.904297 62.478516 66.064453 72.638672 78.292969 81.878906 91.201172 97.775391 103.93945 110.87109 117.01172 123.29297"
               y="0"
               sodipodi:role="line"
               id="tspan248">Moi, moche et méchant</tspan></text>
          <text
             xml:space="preserve"
             transform="translate(6,96)"
             style="font-variant:normal;font-weight:normal;font-size:12px;font-family:'Comic Sans MS';-inkscape-font-specification:ComicSansMS;writing-mode:lr-tb;fill:#000000;fill-opacity:1;fill-rule:nonzero;stroke:none"
             id="text254"><tspan
               x="0 2.9882812 5.9765625"
               y="0"
               sodipodi:role="line"
               id="tspan252">...</tspan></text>
        </g>
      </g>
    </g>
    <g
       id="g256"
       transform="matrix(0.08466666,0,0,0.08466666,-5.2873093,-26.491623)">
      <g
         id="g258"
         clip-path="url(#clipPath262)">
        <g
           id="g264"
           transform="matrix(2.6772857,0,0,2.6763446,1020.0458,1795.5897)">
          <path
             d="m 141,0 c -1,57 -1,113 0,170 5,0 9,0 14,0 0,-57 0,-113 0,-170 z m 2,95 c 3,0 5,0 8,0 m -8,-10 c 3,0 5,0 8,0 m -8,-10 c 3,0 5,0 8,0 m -8,-65 c 2,-2 3,-3 5,-5 1,2 2,3 3,5 m -8,150 c 2,2 3,3 5,5 1,-2 2,-3 3,-5"
             style="fill:#ffffff;fill-opacity:1;fill-rule:nonzero;stroke:none"
             id="path266" />
          <path
             d="m 141,0 c -1,57 -1,113 0,170 5,0 9,0 14,0 0,-57 0,-113 0,-170 z m 2,95 c 3,0 5,0 8,0 m -8,-10 c 3,0 5,0 8,0 m -8,-10 c 3,0 5,0 8,0 m -8,-65 c 2,-2 3,-3 5,-5 1,2 2,3 3,5 m -8,150 c 2,2 3,3 5,5 1,-2 2,-3 3,-5"
             style="fill:none;stroke:#000000;stroke-width:1;stroke-linecap:butt;stroke-linejoin:miter;stroke-miterlimit:10;stroke-dasharray:none;stroke-opacity:1"
             id="path268" />
        </g>
        <g
           id="g270"
           transform="matrix(1.5618026,0,0,1.5612537,1153.9102,1768.8264)">
          <text
             xml:space="preserve"
             style="font-variant:normal;font-weight:bold;font-size:27.42px;font-family:'Comic Sans MS';-inkscape-font-specification:ComicSansMS-Bold;writing-mode:lr-tb;fill:#000000;fill-opacity:1;fill-rule:nonzero;stroke:none"
             id="text274"><tspan
               x="0 17.552536 32.882553 46.231049 60.489975 68.001007 80.921066 96.157364 109.07742"
               y="0"
               sodipodi:role="line"
               id="tspan272">Résultats</tspan></text>
        </g>
        <g
           id="g276"
           transform="matrix(2.6772857,0,0,2.6763446,423.01114,2721.605)">
          <path
             d="m 106,-266 75.00276,-1.76477 L 191,-268 m -6,-6 6,6 -6,6"
             style="fill:none;stroke:#000000;stroke-width:1;stroke-linecap:butt;stroke-linejoin:miter;stroke-miterlimit:10;stroke-dasharray:none;stroke-opacity:1"
             id="path278" />
        </g>
        <g
           id="g280"
           transform="matrix(2.6772857,0,0,2.6763446,337.33801,1825.0295)">
          <path
             d="m 0,0 c 45,-1 89,-1 134,0 0,8 0,17 0,25 C 89,26 45,26 0,25 0,17 0,8 0,0 Z"
             style="fill:#ffffff;fill-opacity:1;fill-rule:nonzero;stroke:none"
             id="path282" />
          <path
             d="m 0,0 c 45,-1 89,-1 134,0 0,8 0,17 0,25 C 89,26 45,26 0,25 0,17 0,8 0,0 Z"
             style="fill:none;stroke:#000000;stroke-width:1;stroke-linecap:butt;stroke-linejoin:miter;stroke-miterlimit:10;stroke-dasharray:none;stroke-opacity:1"
             id="path284" />
        </g>
        <g
           id="g286"
           transform="matrix(1.5618026,0,0,1.5612537,348.04712,1867.8511)">
          <text
             xml:space="preserve"
             style="font-variant:normal;font-weight:normal;font-size:20.57px;font-family:'Comic Sans MS';-inkscape-font-specification:ComicSansMS;writing-mode:lr-tb;fill:#000000;fill-opacity:1;fill-rule:nonzero;stroke:none"
             id="text290"><tspan
               x="0 10.998108 16.763321 28.906448 39.432495"
               y="0"
               sodipodi:role="line"
               id="tspan288">pixar</tspan></text>
        </g>
        <g
           id="g292"
           transform="matrix(2.6772857,0,0,2.6763446,1653.224,1708.6085)">
          <path
             d="m 0,0 c 101,0 201,0 302,0 -1,74 -1,148 0,222 -101,1 -201,1 -302,0 C 1,148 1,74 0,0 Z"
             style="fill:#ffffff;fill-opacity:1;fill-rule:nonzero;stroke:none"
             id="path294" />
          <path
             d="m 0,0 c 101,0 201,0 302,0 -1,74 -1,148 0,222 -101,1 -201,1 -302,0 C 1,148 1,74 0,0 Z"
             style="fill:none;stroke:#000000;stroke-width:1;stroke-linecap:butt;stroke-linejoin:miter;stroke-miterlimit:10;stroke-dasharray:none;stroke-opacity:1"
             id="path296" />
        </g>
        <g
           id="g298"
           transform="matrix(2.6772857,0,0,2.6763446,1724.172,1776.8552)">
          <path
             d="m 0,0 c 20,0 40,0 60,0 0,20 0,40 0,60 C 40,61 20,61 0,60 0,40 0,20 0,0 Z M 3,3 C 21,21 39,39 57,57 M 3,57 C 21,39 39,21 57,3"
             style="fill:#ffffff;fill-opacity:1;fill-rule:nonzero;stroke:none"
             id="path300" />
          <path
             d="m 0,0 c 20,0 40,0 60,0 0,20 0,40 0,60 C 40,61 20,61 0,60 0,40 0,20 0,0 Z M 3,3 C 21,21 39,39 57,57 M 3,57 C 21,39 39,21 57,3"
             style="fill:none;stroke:#000000;stroke-width:1;stroke-linecap:butt;stroke-linejoin:miter;stroke-miterlimit:10;stroke-dasharray:none;stroke-opacity:1"
             id="path302" />
          <path
             d="m 2.5,24 h 55 v 12 h -55 z"
             style="fill:#ffffff;fill-opacity:1;fill-rule:nonzero;stroke:none"
             id="path304" />
        </g>
      </g>
    </g>
    <g
       id="g306"
       transform="matrix(0.08466666,0,0,0.08466666,-5.2873093,-26.491623)">
      <g
         id="g308"
         clip-path="url(#clipPath312)">
        <g
           id="g314"
           transform="matrix(2.6772857,0,0,2.6763446,1724.172,1776.8552)">
          <text
             xml:space="preserve"
             transform="translate(8.21875,35)"
             style="font-variant:normal;font-weight:normal;font-size:12px;font-family:'Comic Sans MS';-inkscape-font-specification:ComicSansMS;writing-mode:lr-tb;fill:#000000;fill-opacity:1;fill-rule:nonzero;stroke:none"
             id="text318"><tspan
               x="0 7.3242188 14.648438 18.234375 25.318359 28.904297 36.228516"
               y="0"
               sodipodi:role="line"
               id="tspan316">60 x 60</tspan></text>
        </g>
      </g>
    </g>
    <g
       id="g320"
       transform="matrix(0.08466666,0,0,0.08466666,-5.2873093,-26.491623)">
      <g
         id="g322"
         clip-path="url(#clipPath326)">
        <g
           id="g328"
           transform="matrix(2.6772857,0,0,2.6763446,1724.172,2028.4318)">
          <path
             d="m 0,0 c 85,-1 171,-1 256,0 0,25 0,50 0,75 C 171,74 85,74 0,75 0,50 0,25 0,0 Z"
             style="fill:#ffffff;fill-opacity:1;fill-rule:nonzero;stroke:none"
             id="path330" />
          <path
             d="m 0,0 c 85,-1 171,-1 256,0 0,25 0,50 0,75 C 171,74 85,74 0,75 0,50 0,25 0,0 Z"
             style="fill:none;stroke:#000000;stroke-width:1;stroke-linecap:butt;stroke-linejoin:miter;stroke-miterlimit:10;stroke-dasharray:none;stroke-opacity:1"
             id="path332" />
        </g>
        <g
           id="g334"
           transform="matrix(1.5618026,0,0,1.5612537,1957.0958,1825.0295)">
          <text
             xml:space="preserve"
             style="font-variant:normal;font-weight:bold;font-size:27.42px;font-family:'Comic Sans MS';-inkscape-font-specification:ComicSansMS-Bold;writing-mode:lr-tb;fill:#000000;fill-opacity:1;fill-rule:nonzero;stroke:none"
             id="text338"><tspan
               x="0 15.102417 30.432434 43.78093 55.670059 63.355148 77.707794 93.814362 109.14438 122.49287 135.41293 148.58737 162.8463 176.93117 189.85123 197.53632 213.80354 221.31458 236.64459"
               y="0"
               sodipodi:role="line"
               id="tspan336">Les indestructibles</tspan></text>
        </g>
        <g
           id="g340"
           transform="matrix(1.5618026,0,0,1.5612537,2015.9961,2266.6265)">
          <text
             xml:space="preserve"
             style="font-variant:normal;font-weight:bold;font-size:41.14px;font-family:'Comic Sans MS';-inkscape-font-specification:ComicSansMS-Bold;writing-mode:lr-tb;fill:#000000;fill-opacity:1;fill-rule:nonzero;stroke:none"
             id="text344"><tspan
               x="0 17.838043 35.676086"
               y="0"
               sodipodi:role="line"
               id="tspan342">...</tspan></text>
        </g>
        <g
           id="g346"
           transform="matrix(1.5618026,0,0,1.5612537,2112.3784,1910.6725)">
          <text
             xml:space="preserve"
             style="font-variant:normal;font-weight:normal;font-size:20.57px;font-family:'Comic Sans MS';-inkscape-font-specification:ComicSansMS;writing-mode:lr-tb;fill:#000000;fill-opacity:1;fill-rule:nonzero;stroke:none"
             id="text350"><tspan
               x="0 12.554932 25.109863 37.664795"
               y="0"
               sodipodi:role="line"
               id="tspan348">2004</tspan></text>
        </g>
        <g
           id="g352"
           transform="matrix(1.5618026,0,0,1.5612537,423.01114,1964.1993)">
          <text
             xml:space="preserve"
             style="font-variant:normal;font-weight:normal;font-size:20.57px;font-family:'Comic Sans MS';-inkscape-font-specification:ComicSansMS;writing-mode:lr-tb;fill:#000000;fill-opacity:1;fill-rule:nonzero;stroke:none"
             id="text356"><tspan
               x="0 12.554932 25.109863 37.664795"
               y="0"
               sodipodi:role="line"
               id="tspan354">2006</tspan></text>
        </g>
      </g>
    </g>
    <g
       id="g358"
       transform="matrix(0.08466666,0,0,0.08466666,-5.2873093,-26.491623)">
      <g
         id="g360"
         clip-path="url(#clipPath364)">
        <g
           id="g366"
           transform="matrix(2.6772857,0,0,2.6763446,1753.6221,2036.4607)">
          <text
             xml:space="preserve"
             transform="translate(0,11)"
             style="font-variant:normal;font-weight:normal;font-size:10px;font-family:'Comic Sans MS';-inkscape-font-specification:ComicSansMS;writing-mode:lr-tb;fill:#000000;fill-opacity:1;fill-rule:nonzero;stroke:none"
             id="text370"><tspan
               x="0 7.3144531 12.519531 17.636719 22.871094 27.583008 30.571289 35.375977 40.493164 45.629883 50.766602 55.571289 60.830078 65.966797 71.743164 77.22168 80.209961 82.949219 88.427734 93.62793 98.432617 103.30078 106.28906 111.42578 116.68457 121.55273 126.26465 131.46484 139.2334 144.71191 149.58008 152.56836 157.76855 162.96875 165.77148 171.00586 176.38672 181.86523 184.85352 189.9707 195.20508 200.07324 203.06152 208.4082 211.14746 216.34766 221.21582 224.2041 228.91602 234.1748 238.88672 241.65527"
               y="0"
               sodipodi:role="line"
               id="tspan368">Ayant raccroché leurs costumes quinze ans plus tôt, </tspan></text>
          <text
             xml:space="preserve"
             transform="translate(0,35)"
             style="font-variant:normal;font-weight:normal;font-size:10px;font-family:'Comic Sans MS';-inkscape-font-specification:ComicSansMS;writing-mode:lr-tb;fill:#000000;fill-opacity:1;fill-rule:nonzero;stroke:none"
             id="text374"><tspan
               x="0 6.3037109 11.5625 17.495117 20.263672 23.251953 28.730469 34.633789 38.798828 47.626953 52.431641 54.921875 57.910156 63.374023 68.608398 74.482422 79.960938 84.829102 89.541016 94.345703 99.545898 104.68262 109.39453 112.19727 118.12988 120.86914 126.34766 129.33594 134.81445 139.52637 142.51465 147.38281 152.5 155.48828 160.57129 166.0498 173.81836 181.58691 187.06543 189.83398 192.82227 200.50293 205.98145 208.7207 214.19922 219.43359 224.91211 227.68066"
               y="0"
               sodipodi:role="line"
               id="tspan372">Bob, ex-Mr. Indestructible et sa femme, Hélène, </tspan></text>
          <text
             xml:space="preserve"
             transform="translate(0,60)"
             style="font-variant:normal;font-weight:normal;font-size:10px;font-family:'Comic Sans MS';-inkscape-font-specification:ComicSansMS;writing-mode:lr-tb;fill:#000000;fill-opacity:1;fill-rule:nonzero;stroke:none"
             id="text378"><tspan
               x="0 5.4785156 11.381836 15.546875 21.791992 24.53125 29.648438 34.516602 39.228516 42.03125 47.338867 50.141602 54.946289"
               y="0"
               sodipodi:role="line"
               id="tspan376">ex-Elastigirl</tspan></text>
        </g>
      </g>
    </g>
    <g
       id="g380"
       transform="matrix(0.08466666,0,0,0.08466666,-5.2873093,-26.491623)">
      <g
         id="g382"
         clip-path="url(#clipPath386)">
        <g
           id="g388"
           transform="matrix(2.6772857,0,0,2.6763446,626.48486,2820.6296)">
          <path
             d="m 309,-346 74.22198,15.90472 L 393,-328 m -4,-7 4,7 -7,4"
             style="fill:none;stroke:#000000;stroke-width:1;stroke-linecap:butt;stroke-linejoin:miter;stroke-miterlimit:10;stroke-dasharray:none;stroke-opacity:1"
             id="path390" />
        </g>
        <g
           id="g392"
           transform="matrix(2.6772857,0,0,2.6763446,315.91971,2143.5146)">
          <path
             d="M 0,7.5 C 50,7 100,7 150,7.5"
             style="fill:#000000;fill-opacity:1;fill-rule:nonzero;stroke:none"
             id="path394" />
          <path
             d="M 0,7.5 C 50,7 100,7 150,7.5"
             style="fill:none;stroke:#000000;stroke-width:1;stroke-linecap:butt;stroke-linejoin:miter;stroke-miterlimit:10;stroke-dasharray:none;stroke-opacity:1"
             id="path396" />
        </g>
        <g
           id="g398"
           transform="matrix(2.6772857,0,0,2.6763446,429.70438,2143.5146)">
          <path
             d="m 14.854643,7.6980028 c 0,3.8547602 -2.200949,6.6306902 -7.0008751,6.9796802 C 3.9975271,14.958043 0.50284392,11.669103 0.85288793,7.6980028 1.191377,3.8580329 4.003037,0.37077296 7.8537679,0.71833295 11.720246,1.067323 14.854643,3.8432331 14.854643,7.6980028 Z"
             style="fill:#e5e5e5;fill-opacity:1;fill-rule:nonzero;stroke:none"
             id="path400" />
          <path
             d="m 14.854643,7.6980028 c 0,3.8547602 -2.200949,6.6306902 -7.0008751,6.9796802 C 3.9975271,14.958043 0.50284392,11.669103 0.85288793,7.6980028 1.191377,3.8580329 4.003037,0.37077296 7.8537679,0.71833295 11.720246,1.067323 14.854643,3.8432331 14.854643,7.6980028 Z"
             style="fill:none;stroke:#000000;stroke-width:1;stroke-linecap:butt;stroke-linejoin:miter;stroke-miterlimit:10;stroke-dasharray:none;stroke-opacity:1"
             id="path402" />
        </g>
        <g
           id="g404"
           transform="matrix(1.5618026,0,0,1.5612537,157.95985,2172.9543)">
          <text
             xml:space="preserve"
             style="font-variant:normal;font-weight:normal;font-size:20.57px;font-family:'Comic Sans MS';-inkscape-font-specification:ComicSansMS;writing-mode:lr-tb;fill:#000000;fill-opacity:1;fill-rule:nonzero;stroke:none"
             id="text408"><tspan
               x="0 16.391708 27.20903 43.188934 55.392319 65.275558"
               y="0"
               sodipodi:role="line"
               id="tspan406">Nombre</tspan></text>
        </g>
      </g>
    </g>
  </g>
</svg>
